#define /home/jchenry/.twm/icons/minimize2.xbm_width 7
#define /home/jchenry/.twm/icons/minimize2.xbm_height 7
static unsigned char /home/jchenry/.twm/icons/minimize2.xbm_bits[] = {
   0x00, 0x00, 0x00, 0x7f, 0x00, 0x00, 0x00};
